HIERARCHY
ROOT Hips
{
	OFFSET 0.000000 88.474243 0.000000
	CHANNELS 6 Xposition Yposition Zposition Zrotation Yrotation Xrotation 
	JOINT Hips_Spine
	{
		OFFSET 0.000000 0.000000 0.000000
		CHANNELS 3 Zrotation Yrotation Xrotation
		JOINT Spine
		{
			OFFSET 0.005100 8.711998 -0.691000
			CHANNELS 3 Zrotation Yrotation Xrotation
			JOINT Spine1
			{
				OFFSET -0.009200 8.660301 -1.275000
				CHANNELS 3 Zrotation Yrotation Xrotation
				JOINT Spine2
				{
					OFFSET 0.006300 9.852501 -1.857000
					CHANNELS 3 Zrotation Yrotation Xrotation
					JOINT Spine2_Neck
					{
						OFFSET 0.000000 0.000000 0.000000
						CHANNELS 3 Zrotation Yrotation Xrotation
						JOINT Neck
						{
							OFFSET 0.016300 11.420799 -0.263300
							CHANNELS 3 Zrotation Yrotation Xrotation
							End Site #name: Head
							{
								OFFSET -0.019200 9.262405 2.362500
							}
						}
					}
					JOINT Spine2_LeftShoulder
					{
						OFFSET 0.000000 0.000000 0.000000
						CHANNELS 3 Zrotation Yrotation Xrotation
						JOINT LeftShoulder
						{
							OFFSET 5.616900 6.732201 -0.345700
							CHANNELS 3 Zrotation Yrotation Xrotation
							JOINT LeftArm
							{
								OFFSET 10.664888 -0.183372 -2.440700
								CHANNELS 3 Zrotation Yrotation Xrotation
								JOINT LeftForeArm
								{
									OFFSET 27.459126 0.000000 0.000000
									CHANNELS 3 Zrotation Yrotation Xrotation
									End Site #name: LeftHand
									{
										OFFSET 21.306858 0.000000 0.000000
									}
								}
							}
						}
					}
					JOINT Spine2_RightShoulder
					{
						OFFSET 0.000000 0.000000 0.000000
						CHANNELS 3 Zrotation Yrotation Xrotation
						JOINT RightShoulder
						{
							OFFSET -5.580300 6.737503 -0.344400
							CHANNELS 3 Zrotation Yrotation Xrotation
							JOINT RightArm
							{
								OFFSET -10.679335 -0.188484 -2.383900
								CHANNELS 3 Zrotation Yrotation Xrotation
								JOINT RightForeArm
								{
									OFFSET -27.503529 0.000000 0.000000
									CHANNELS 3 Zrotation Yrotation Xrotation
									End Site #name: RightHand
									{
										OFFSET -21.306808 0.000000 0.000000
									}
								}
							}
						}
					}
				}
			}
		}
	}
	JOINT Hips_LeftUpLeg
	{
		OFFSET 0.000000 0.000000 0.000000
		CHANNELS 3 Zrotation Yrotation Xrotation
		JOINT LeftUpLeg
		{
			OFFSET 6.857700 -6.739601 0.312100
			CHANNELS 3 Zrotation Yrotation Xrotation
			JOINT LeftLeg
			{
				OFFSET -0.367590 -34.731552 -4.572400
				CHANNELS 3 Zrotation Yrotation Xrotation
				End Site #name: LeftFoot
				{
					OFFSET 0.367590 -34.656704 -6.067400
				}
			}
		}
	}
	JOINT Hips_RightUpLeg
	{
		OFFSET 0.000000 0.000000 0.000000
		CHANNELS 3 Zrotation Yrotation Xrotation
		JOINT RightUpLeg
		{
			OFFSET -6.876100 -6.733299 0.301000
			CHANNELS 3 Zrotation Yrotation Xrotation
			JOINT RightLeg
			{
				OFFSET 0.347353 -34.795158 -4.515900
				CHANNELS 3 Zrotation Yrotation Xrotation
				End Site #name: RightFoot
				{
					OFFSET -0.347353 -34.589367 -6.070300
				}
			}
		}
	}
}
MOTION
Frames: 6
Frame Time: 0.041667
0.052701 -0.054148 -0.151352 -6.699993 64.316702 -4.338421 -0.000000 -0.000000 -0.000000 -3.686749 1.713042 4.389579 2.272687 1.018162 1.904608 0.000000 0.000000 0.000000 3.892035 0.280615 1.196004 -4.454935 -5.256167 -2.183079 1.844533 0.968839 1.248989 -4.236833 -14.626665 2.194429 -89.402359 2.063982 -12.347092 0.061431 -12.990335 -0.394067 2.100732 0.239423 2.171720 9.634899 16.008668 4.673619 31.660668 36.478305 -18.589506 -178.770917 58.284506 -174.424624 0.000000 -0.000000 -0.000000 -8.453793 8.745797 -21.726491 -8.235118 -22.788535 4.773864 0.000000 0.000000 -0.000000 1.126840 0.528415 -10.488152 2.017482 -5.997670 4.979871 
-0.317742 -0.221599 -0.269616 -4.076724 57.261029 0.708091 -0.000000 -0.000000 -0.000000 -5.196678 2.126945 4.254952 3.319529 1.052940 2.263768 0.000000 0.000000 0.000000 3.789467 0.507313 2.766734 -3.924205 -4.609903 -3.849494 3.072387 0.584507 1.547098 -4.311460 -15.690110 1.908767 -90.726538 -5.435748 -14.363517 -1.340202 -4.347350 -0.485532 3.343267 0.711330 1.973332 11.439592 16.145339 3.211674 37.511888 36.009970 -26.681330 178.388425 47.576520 -176.937518 0.000000 -0.000000 -0.000000 -8.197494 9.090289 -22.860391 -7.808151 -20.981811 2.576325 0.000000 0.000000 0.000000 -0.617594 2.675971 -10.334535 3.444580 -2.424424 2.762777 
-0.620085 -0.317351 -0.457190 -5.538794 53.249554 0.365541 -0.000000 -0.000000 -0.000000 -3.701628 2.321257 3.077182 3.658220 0.747115 1.968677 0.000000 0.000000 0.000000 4.053600 0.061482 2.970562 -3.675177 -5.207561 -3.935377 3.132418 0.433168 1.753311 -3.796527 -13.870708 1.393538 -92.339177 -6.696392 -17.456238 -1.664385 2.483746 -0.105564 3.602856 0.707661 1.789289 12.834862 17.038550 3.421650 38.567353 36.632157 -24.743427 177.875019 44.975303 -176.589600 0.000000 -0.000000 -0.000000 -6.385605 10.511946 -23.020446 -7.425673 -17.371511 3.095160 0.000000 0.000000 -0.000000 0.040433 1.576713 -9.066843 4.167438 0.290231 1.899862 
-0.852802 -0.384800 -0.636963 -6.749281 48.297051 -0.633419 -0.000000 -0.000000 -0.000000 -1.051579 2.113109 2.119058 3.564948 0.368592 1.869323 0.000000 0.000000 0.000000 3.901741 -0.144467 2.762060 -3.569759 -4.018592 -4.773139 2.966338 0.134828 1.461897 -3.887131 -10.600790 -0.308327 -93.266362 -8.708989 -18.364219 -1.807313 6.183171 -0.078830 3.498814 0.355032 1.761323 12.034474 15.709816 3.205323 36.588182 39.152100 -28.603821 177.672811 42.413696 -176.568292 0.000000 0.000000 -0.000000 -4.944589 12.223640 -22.632977 -6.815322 -15.534930 3.352419 0.000000 0.000000 -0.000000 0.831061 -2.549134 -8.412855 4.323549 2.291931 2.246116 
-0.983158 -0.421750 -0.763301 -7.557049 45.784424 -1.495320 -0.000000 -0.000000 -0.000000 0.707517 1.829574 0.942006 2.982975 0.335392 1.989069 0.000000 0.000000 0.000000 3.562257 -0.165215 2.715312 -3.665095 -3.848112 -4.927154 2.739016 -0.025773 1.474260 -4.582979 -8.205949 -1.175777 -91.289073 -10.425271 -15.839599 -1.874009 8.776798 -0.108031 3.139577 0.063935 1.740794 11.006254 12.629705 2.558990 35.545120 39.775766 -32.121086 177.606853 40.194858 -176.578707 0.000000 0.000000 -0.000000 -3.882795 13.558487 -21.844328 -6.660964 -15.171102 3.160522 0.000000 0.000000 -0.000000 1.537384 -4.659655 -7.909692 3.985220 2.790479 2.555260 
-1.048912 -0.446464 -0.865316 -7.937628 44.217301 -1.922958 -0.000000 -0.000000 -0.000000 1.792687 1.730646 0.167718 2.487825 0.269423 1.971167 0.000000 0.000000 0.000000 3.211456 -0.178928 2.711581 -3.817831 -4.058589 -4.645919 2.473292 -0.110037 1.607946 -5.431984 -7.219669 -0.982772 -87.714415 -11.883964 -12.166968 -1.885523 9.759458 -0.124820 2.761740 -0.107986 1.633212 10.335487 10.686872 2.046114 35.093213 39.204467 -34.491456 177.607877 38.995039 -176.696677 0.000000 0.000000 -0.000000 -3.416440 14.107337 -21.261014 -6.617970 -15.143302 2.867008 -0.000000 0.000000 -0.000000 2.031972 -4.695530 -7.467191 3.333959 1.895185 2.173356 
